<?xml version="1.0" encoding="UTF-8" standalone="no"?>
<!DOCTYPE svg PUBLIC "-//W3C//DTD SVG 1.1//EN"
 "http://www.w3.org/Graphics/SVG/1.1/DTD/svg11.dtd">
<!-- Generated by graphviz version 12.1.2 (20240928.0832)
 -->
<!-- Title: pastafarianism Pages: 1 -->
<svg width="588pt" height="260pt"
 viewBox="0.00 0.00 587.75 260.00" xmlns="http://www.w3.org/2000/svg" xmlns:xlink="http://www.w3.org/1999/xlink">
<g id="graph0" class="graph" transform="scale(1 1) rotate(0) translate(4 256)">
<title>pastafarianism</title>
<polygon fill="white" stroke="none" points="-4,4 -4,-256 583.75,-256 583.75,4 -4,4"/>
<!-- Pick Place DOTS -->
<g id="node1" class="node">
<title>Pick Place DOTS</title>
<polygon fill="orange" stroke="black" points="346.62,-252 235.38,-252 235.38,-216 346.62,-216 346.62,-252"/>
<text text-anchor="middle" x="291" y="-230.7" font-family="Times,serif" font-size="9.00">Pick Place DOTS: robot_0</text>
</g>
<!-- Information Processing -->
<g id="node2" class="node">
<title>Information Processing</title>
<polygon fill="orange" stroke="black" points="172.62,-180 73.38,-180 73.38,-144 172.62,-144 172.62,-180"/>
<text text-anchor="middle" x="123" y="-158.7" font-family="Times,serif" font-size="9.00">Information Processing</text>
</g>
<!-- Pick Place DOTS&#45;&gt;Information Processing -->
<g id="edge1" class="edge">
<title>Pick Place DOTS: robot_0&#45;&gt;Information Processing</title>
<path fill="none" stroke="black" d="M249.04,-215.52C226.71,-206.21 199.03,-194.68 175.3,-184.79"/>
<polygon fill="black" stroke="black" points="176.69,-181.58 166.11,-180.96 174,-188.04 176.69,-181.58"/>
</g>
<!-- Select Action -->
<g id="node6" class="node">
<title>Select Action</title>
<ellipse fill="gray" stroke="black" cx="227" cy="-162" rx="36.43" ry="18"/>
<text text-anchor="middle" x="227" y="-158.7" font-family="Times,serif" font-size="9.00">Select Action</text>
</g>
<!-- Pick Place DOTS&#45;&gt;Select Action -->
<g id="edge5" class="edge">
<title>Pick Place DOTS: robot_0&#45;&gt;Select Action</title>
<path fill="none" stroke="black" d="M275.18,-215.7C267.24,-207.02 257.51,-196.37 248.87,-186.92"/>
<polygon fill="black" stroke="black" points="251.68,-184.81 242.35,-179.79 246.51,-189.53 251.68,-184.81"/>
</g>
<!-- DOTS Actions robot_0 -->
<g id="node7" class="node">
<title>DOTS Actions robot_0</title>
<polygon fill="cyan" stroke="black" points="430.56,-154.54 430.56,-169.46 386.88,-180 325.12,-180 281.44,-169.46 281.44,-154.54 325.12,-144 386.88,-144 430.56,-154.54"/>
<text text-anchor="middle" x="356" y="-160.2" font-family="Times,serif" font-size="9.00">Ⓜ DOTS Actions robot_0</text>
</g>
<!-- Pick Place DOTS&#45;&gt;DOTS Actions robot_0 -->
<g id="edge6" class="edge">
<title>Pick Place DOTS: robot_0&#45;&gt;DOTS Actions robot_0</title>
<path fill="none" stroke="black" d="M307.07,-215.7C314.7,-207.47 323.98,-197.48 332.4,-188.42"/>
<polygon fill="black" stroke="black" points="334.85,-190.92 339.09,-181.21 329.72,-186.16 334.85,-190.92"/>
</g>
<!-- Send Path -->
<g id="node14" class="node">
<title>Send Path</title>
<ellipse fill="gray" stroke="black" cx="479" cy="-162" rx="30.31" ry="18"/>
<text text-anchor="middle" x="479" y="-158.7" font-family="Times,serif" font-size="9.00">Send Path</text>
</g>
<!-- Pick Place DOTS&#45;&gt;Send Path -->
<g id="edge13" class="edge">
<title>Pick Place DOTS: robot_0&#45;&gt;Send Path</title>
<path fill="none" stroke="black" d="M342.7,-215.6C371.52,-205.65 407.96,-192.67 440,-180 441.55,-179.39 443.12,-178.75 444.71,-178.1"/>
<polygon fill="black" stroke="black" points="445.93,-181.39 453.79,-174.28 443.22,-174.94 445.93,-181.39"/>
</g>
<!-- Sense -->
<g id="node3" class="node">
<title>Sense</title>
<ellipse fill="gray" stroke="black" cx="27" cy="-90" rx="27" ry="18"/>
<text text-anchor="middle" x="27" y="-86.7" font-family="Times,serif" font-size="9.00">Sense</text>
</g>
<!-- Information Processing&#45;&gt;Sense -->
<g id="edge2" class="edge">
<title>Information Processing&#45;&gt;Sense</title>
<path fill="none" stroke="black" d="M99.27,-143.7C85.56,-133.7 68.25,-121.08 54.02,-110.7"/>
<polygon fill="black" stroke="black" points="56.1,-107.89 45.96,-104.82 51.97,-113.54 56.1,-107.89"/>
</g>
<!-- Update Robo Graph -->
<g id="node4" class="node">
<title>Update Robo Graph</title>
<ellipse fill="gray" stroke="black" cx="123" cy="-90" rx="51.29" ry="18"/>
<text text-anchor="middle" x="123" y="-86.7" font-family="Times,serif" font-size="9.00">Update Robo Graph</text>
</g>
<!-- Information Processing&#45;&gt;Update Robo Graph -->
<g id="edge3" class="edge">
<title>Information Processing&#45;&gt;Update Robo Graph</title>
<path fill="none" stroke="black" d="M123,-143.7C123,-136.41 123,-127.73 123,-119.54"/>
<polygon fill="black" stroke="black" points="126.5,-119.62 123,-109.62 119.5,-119.62 126.5,-119.62"/>
</g>
<!-- Update Hive Graph -->
<g id="node5" class="node">
<title>Update Hive Graph</title>
<ellipse fill="gray" stroke="black" cx="242" cy="-90" rx="49.98" ry="18"/>
<text text-anchor="middle" x="242" y="-86.7" font-family="Times,serif" font-size="9.00">Update Hive Graph</text>
</g>
<!-- Information Processing&#45;&gt;Update Hive Graph -->
<g id="edge4" class="edge">
<title>Information Processing&#45;&gt;Update Hive Graph</title>
<path fill="none" stroke="black" d="M152.72,-143.52C169.18,-133.84 189.73,-121.74 206.97,-111.61"/>
<polygon fill="black" stroke="black" points="208.53,-114.75 215.38,-106.66 204.98,-108.71 208.53,-114.75"/>
</g>
<!-- Go To Door -->
<g id="node8" class="node">
<title>Go To Door</title>
<polygon fill="orange" stroke="black" points="378.12,-108 317.88,-108 317.88,-72 378.12,-72 378.12,-108"/>
<text text-anchor="middle" x="348" y="-86.7" font-family="Times,serif" font-size="9.00">Go To Door</text>
</g>
<!-- DOTS Actions robot_0&#45;&gt;Go To Door -->
<g id="edge7" class="edge">
<title>DOTS Actions robot_0&#45;&gt;Go To Door</title>
<path fill="none" stroke="black" d="M354.02,-143.7C353.19,-136.41 352.2,-127.73 351.26,-119.54"/>
<polygon fill="black" stroke="black" points="354.74,-119.15 350.13,-109.61 347.78,-119.94 354.74,-119.15"/>
</g>
<!-- Go To task -->
<g id="node11" class="node">
<title>Go To task</title>
<polygon fill="orange" stroke="black" points="479.88,-108 424.12,-108 424.12,-72 479.88,-72 479.88,-108"/>
<text text-anchor="middle" x="452" y="-86.7" font-family="Times,serif" font-size="9.00">Go To task</text>
</g>
<!-- DOTS Actions robot_0&#45;&gt;Go To task -->
<g id="edge10" class="edge">
<title>DOTS Actions robot_0&#45;&gt;Go To task</title>
<path fill="none" stroke="black" d="M379.73,-143.7C391.62,-135.03 406.19,-124.4 419.14,-114.96"/>
<polygon fill="black" stroke="black" points="420.97,-117.96 426.99,-109.24 416.84,-112.3 420.97,-117.96"/>
</g>
<!-- Check if go to door -->
<g id="node9" class="node">
<title>Check if go to door</title>
<ellipse fill="gray" stroke="black" cx="243" cy="-18" rx="49.54" ry="18"/>
<text text-anchor="middle" x="243" y="-14.7" font-family="Times,serif" font-size="9.00">Check if go to door</text>
</g>
<!-- Go To Door&#45;&gt;Check if go to door -->
<g id="edge8" class="edge">
<title>Go To Door&#45;&gt;Check if go to door</title>
<path fill="none" stroke="black" d="M321.77,-71.52C307.72,-62.15 290.29,-50.53 275.4,-40.6"/>
<polygon fill="black" stroke="black" points="277.56,-37.83 267.3,-35.2 273.68,-43.66 277.56,-37.83"/>
</g>
<!-- Go To Door* -->
<g id="node10" class="node">
<title>Go To Door*</title>
<ellipse fill="gray" stroke="black" cx="348" cy="-18" rx="37.74" ry="18"/>
<text text-anchor="middle" x="348" y="-14.7" font-family="Times,serif" font-size="9.00">Go To Door*</text>
</g>
<!-- Go To Door&#45;&gt;Go To Door* -->
<g id="edge9" class="edge">
<title>Go To Door&#45;&gt;Go To Door*</title>
<path fill="none" stroke="black" d="M348,-71.7C348,-64.41 348,-55.73 348,-47.54"/>
<polygon fill="black" stroke="black" points="351.5,-47.62 348,-37.62 344.5,-47.62 351.5,-47.62"/>
</g>
<!-- Check if go to task -->
<g id="node12" class="node">
<title>Check if go to task</title>
<ellipse fill="gray" stroke="black" cx="452" cy="-18" rx="48.23" ry="18"/>
<text text-anchor="middle" x="452" y="-14.7" font-family="Times,serif" font-size="9.00">Check if go to task</text>
</g>
<!-- Go To task&#45;&gt;Check if go to task -->
<g id="edge11" class="edge">
<title>Go To task&#45;&gt;Check if go to task</title>
<path fill="none" stroke="black" d="M452,-71.7C452,-64.41 452,-55.73 452,-47.54"/>
<polygon fill="black" stroke="black" points="455.5,-47.62 452,-37.62 448.5,-47.62 455.5,-47.62"/>
</g>
<!-- Go to task -->
<g id="node13" class="node">
<title>Go to task</title>
<ellipse fill="gray" stroke="black" cx="549" cy="-18" rx="30.75" ry="18"/>
<text text-anchor="middle" x="549" y="-14.7" font-family="Times,serif" font-size="9.00">Go to task</text>
</g>
<!-- Go To task&#45;&gt;Go to task -->
<g id="edge12" class="edge">
<title>Go To task&#45;&gt;Go to task</title>
<path fill="none" stroke="black" d="M475.98,-71.7C489.56,-61.89 506.63,-49.58 520.85,-39.32"/>
<polygon fill="black" stroke="black" points="522.87,-42.17 528.93,-33.48 518.77,-36.5 522.87,-42.17"/>
</g>
</g>
</svg>
