<?xml version="1.0" encoding="UTF-8" standalone="no"?>
<!DOCTYPE svg PUBLIC "-//W3C//DTD SVG 1.1//EN"
 "http://www.w3.org/Graphics/SVG/1.1/DTD/svg11.dtd">
<!-- Generated by graphviz version 12.1.2 (20240928.0832)
 -->
<!-- Title: pastafarianism Pages: 1 -->
<svg width="1036pt" height="260pt"
 viewBox="0.00 0.00 1035.75 260.00" xmlns="http://www.w3.org/2000/svg" xmlns:xlink="http://www.w3.org/1999/xlink">
<g id="graph0" class="graph" transform="scale(1 1) rotate(0) translate(4 256)">
<title>pastafarianism</title>
<polygon fill="white" stroke="none" points="-4,4 -4,-256 1031.75,-256 1031.75,4 -4,4"/>
<!-- Pick Place DOTS -->
<g id="node1" class="node">
<title>Pick Place DOTS</title>
<polygon fill="orange" stroke="black" points="482.62,-252 371.38,-252 371.38,-216 482.62,-216 482.62,-252"/>
<text text-anchor="middle" x="427" y="-230.7" font-family="Times,serif" font-size="9.00">Pick Place DOTS: robot_0</text>
</g>
<!-- Information Processing -->
<g id="node2" class="node">
<title>Information Processing</title>
<polygon fill="orange" stroke="black" points="232.62,-180 133.38,-180 133.38,-144 232.62,-144 232.62,-180"/>
<text text-anchor="middle" x="183" y="-158.7" font-family="Times,serif" font-size="9.00">Information Processing</text>
</g>
<!-- Pick Place DOTS&#45;&gt;Information Processing -->
<g id="edge1" class="edge">
<title>Pick Place DOTS: robot_0&#45;&gt;Information Processing</title>
<path fill="none" stroke="black" d="M371.02,-216.94C333.04,-206.04 282.83,-191.64 243.85,-180.46"/>
<polygon fill="black" stroke="black" points="244.95,-177.13 234.37,-177.74 243.02,-183.86 244.95,-177.13"/>
</g>
<!-- Select Action -->
<g id="node6" class="node">
<title>Select Action</title>
<ellipse fill="gray" stroke="black" cx="363" cy="-162" rx="36.43" ry="18"/>
<text text-anchor="middle" x="363" y="-158.7" font-family="Times,serif" font-size="9.00">Select Action</text>
</g>
<!-- Pick Place DOTS&#45;&gt;Select Action -->
<g id="edge5" class="edge">
<title>Pick Place DOTS: robot_0&#45;&gt;Select Action</title>
<path fill="none" stroke="black" d="M411.18,-215.7C403.24,-207.02 393.51,-196.37 384.87,-186.92"/>
<polygon fill="black" stroke="black" points="387.68,-184.81 378.35,-179.79 382.51,-189.53 387.68,-184.81"/>
</g>
<!-- DOTS Actions robot_0 -->
<g id="node7" class="node">
<title>DOTS Actions robot_0</title>
<polygon fill="cyan" stroke="black" points="566.56,-154.54 566.56,-169.46 522.88,-180 461.12,-180 417.44,-169.46 417.44,-154.54 461.12,-144 522.88,-144 566.56,-154.54"/>
<text text-anchor="middle" x="492" y="-160.2" font-family="Times,serif" font-size="9.00">Ⓜ DOTS Actions robot_0</text>
</g>
<!-- Pick Place DOTS&#45;&gt;DOTS Actions robot_0 -->
<g id="edge6" class="edge">
<title>Pick Place DOTS: robot_0&#45;&gt;DOTS Actions robot_0</title>
<path fill="none" stroke="black" d="M443.07,-215.7C450.7,-207.47 459.98,-197.48 468.4,-188.42"/>
<polygon fill="black" stroke="black" points="470.85,-190.92 475.09,-181.21 465.72,-186.16 470.85,-190.92"/>
</g>
<!-- Send Path -->
<g id="node21" class="node">
<title>Send Path</title>
<ellipse fill="gray" stroke="black" cx="615" cy="-162" rx="30.31" ry="18"/>
<text text-anchor="middle" x="615" y="-158.7" font-family="Times,serif" font-size="9.00">Send Path</text>
</g>
<!-- Pick Place DOTS&#45;&gt;Send Path -->
<g id="edge20" class="edge">
<title>Pick Place DOTS: robot_0&#45;&gt;Send Path</title>
<path fill="none" stroke="black" d="M478.7,-215.6C507.52,-205.65 543.96,-192.67 576,-180 577.55,-179.39 579.12,-178.75 580.71,-178.1"/>
<polygon fill="black" stroke="black" points="581.93,-181.39 589.79,-174.28 579.22,-174.94 581.93,-181.39"/>
</g>
<!-- Sense -->
<g id="node3" class="node">
<title>Sense</title>
<ellipse fill="gray" stroke="black" cx="27" cy="-90" rx="27" ry="18"/>
<text text-anchor="middle" x="27" y="-86.7" font-family="Times,serif" font-size="9.00">Sense</text>
</g>
<!-- Information Processing&#45;&gt;Sense -->
<g id="edge2" class="edge">
<title>Information Processing&#45;&gt;Sense</title>
<path fill="none" stroke="black" d="M142.89,-143.59C119.52,-133.36 89.52,-120.11 63,-108 61.69,-107.4 60.36,-106.79 59.01,-106.17"/>
<polygon fill="black" stroke="black" points="60.57,-103.03 50.03,-101.98 57.61,-109.38 60.57,-103.03"/>
</g>
<!-- Update Robo Graph -->
<g id="node4" class="node">
<title>Update Robo Graph</title>
<ellipse fill="gray" stroke="black" cx="123" cy="-90" rx="51.29" ry="18"/>
<text text-anchor="middle" x="123" y="-86.7" font-family="Times,serif" font-size="9.00">Update Robo Graph</text>
</g>
<!-- Information Processing&#45;&gt;Update Robo Graph -->
<g id="edge3" class="edge">
<title>Information Processing&#45;&gt;Update Robo Graph</title>
<path fill="none" stroke="black" d="M168.17,-143.7C161.09,-135.44 152.48,-125.39 144.69,-116.3"/>
<polygon fill="black" stroke="black" points="147.4,-114.09 138.23,-108.77 142.08,-118.64 147.4,-114.09"/>
</g>
<!-- Update Hive Graph -->
<g id="node5" class="node">
<title>Update Hive Graph</title>
<ellipse fill="gray" stroke="black" cx="242" cy="-90" rx="49.98" ry="18"/>
<text text-anchor="middle" x="242" y="-86.7" font-family="Times,serif" font-size="9.00">Update Hive Graph</text>
</g>
<!-- Information Processing&#45;&gt;Update Hive Graph -->
<g id="edge4" class="edge">
<title>Information Processing&#45;&gt;Update Hive Graph</title>
<path fill="none" stroke="black" d="M197.58,-143.7C204.55,-135.44 213.01,-125.39 220.68,-116.3"/>
<polygon fill="black" stroke="black" points="223.25,-118.68 227.01,-108.78 217.89,-114.17 223.25,-118.68"/>
</g>
<!-- Go To Door -->
<g id="node8" class="node">
<title>Go To Door</title>
<polygon fill="orange" stroke="black" points="370.12,-108 309.88,-108 309.88,-72 370.12,-72 370.12,-108"/>
<text text-anchor="middle" x="340" y="-86.7" font-family="Times,serif" font-size="9.00">Go To Door</text>
</g>
<!-- DOTS Actions robot_0&#45;&gt;Go To Door -->
<g id="edge7" class="edge">
<title>DOTS Actions robot_0&#45;&gt;Go To Door</title>
<path fill="none" stroke="black" d="M456.75,-144.76C434.08,-134.33 404.56,-120.73 380.87,-109.82"/>
<polygon fill="black" stroke="black" points="382.36,-106.66 371.81,-105.65 379.43,-113.01 382.36,-106.66"/>
</g>
<!-- Give Way -->
<g id="node12" class="node">
<title>Give Way</title>
<polygon fill="orange" stroke="black" points="519,-108 465,-108 465,-72 519,-72 519,-108"/>
<text text-anchor="middle" x="492" y="-86.7" font-family="Times,serif" font-size="9.00">Give Way</text>
</g>
<!-- DOTS Actions robot_0&#45;&gt;Give Way -->
<g id="edge11" class="edge">
<title>DOTS Actions robot_0&#45;&gt;Give Way</title>
<path fill="none" stroke="black" d="M492,-143.7C492,-136.41 492,-127.73 492,-119.54"/>
<polygon fill="black" stroke="black" points="495.5,-119.62 492,-109.62 488.5,-119.62 495.5,-119.62"/>
</g>
<!-- Go Through Door -->
<g id="node15" class="node">
<title>Go Through Door</title>
<polygon fill="orange" stroke="black" points="694.62,-108 613.38,-108 613.38,-72 694.62,-72 694.62,-108"/>
<text text-anchor="middle" x="654" y="-86.7" font-family="Times,serif" font-size="9.00">Go Through Door</text>
</g>
<!-- DOTS Actions robot_0&#45;&gt;Go Through Door -->
<g id="edge14" class="edge">
<title>DOTS Actions robot_0&#45;&gt;Go Through Door</title>
<path fill="none" stroke="black" d="M528.76,-145.12C550.8,-135.59 579.14,-123.35 603.28,-112.91"/>
<polygon fill="black" stroke="black" points="604.51,-116.2 612.3,-109.02 601.74,-109.77 604.51,-116.2"/>
</g>
<!-- Go To task -->
<g id="node18" class="node">
<title>Go To task</title>
<polygon fill="orange" stroke="black" points="927.88,-108 872.12,-108 872.12,-72 927.88,-72 927.88,-108"/>
<text text-anchor="middle" x="900" y="-86.7" font-family="Times,serif" font-size="9.00">Go To task</text>
</g>
<!-- DOTS Actions robot_0&#45;&gt;Go To task -->
<g id="edge17" class="edge">
<title>DOTS Actions robot_0&#45;&gt;Go To task</title>
<path fill="none" stroke="black" d="M547.52,-149.46C557.01,-147.57 566.78,-145.69 576,-144 678.45,-125.26 799.71,-106.27 860.74,-96.94"/>
<polygon fill="black" stroke="black" points="860.91,-100.45 870.27,-95.48 859.86,-93.53 860.91,-100.45"/>
</g>
<!-- Update door choice -->
<g id="node9" class="node">
<title>Update door choice</title>
<ellipse fill="gray" stroke="black" cx="118" cy="-18" rx="49.54" ry="18"/>
<text text-anchor="middle" x="118" y="-14.7" font-family="Times,serif" font-size="9.00">Update door choice</text>
</g>
<!-- Go To Door&#45;&gt;Update door choice -->
<g id="edge8" class="edge">
<title>Go To Door&#45;&gt;Update door choice</title>
<path fill="none" stroke="black" d="M309.5,-75.25C306.64,-74.1 303.78,-73 301,-72 246.61,-52.41 231.52,-52.13 176,-36 172.93,-35.11 169.77,-34.19 166.58,-33.26"/>
<polygon fill="black" stroke="black" points="167.78,-29.96 157.2,-30.52 165.81,-36.68 167.78,-29.96"/>
</g>
<!-- Check if go to door -->
<g id="node10" class="node">
<title>Check if go to door</title>
<ellipse fill="gray" stroke="black" cx="235" cy="-18" rx="49.54" ry="18"/>
<text text-anchor="middle" x="235" y="-14.7" font-family="Times,serif" font-size="9.00">Check if go to door</text>
</g>
<!-- Go To Door&#45;&gt;Check if go to door -->
<g id="edge9" class="edge">
<title>Go To Door&#45;&gt;Check if go to door</title>
<path fill="none" stroke="black" d="M313.77,-71.52C299.72,-62.15 282.29,-50.53 267.4,-40.6"/>
<polygon fill="black" stroke="black" points="269.56,-37.83 259.3,-35.2 265.68,-43.66 269.56,-37.83"/>
</g>
<!-- Go To Door* -->
<g id="node11" class="node">
<title>Go To Door*</title>
<ellipse fill="gray" stroke="black" cx="340" cy="-18" rx="37.74" ry="18"/>
<text text-anchor="middle" x="340" y="-14.7" font-family="Times,serif" font-size="9.00">Go To Door*</text>
</g>
<!-- Go To Door&#45;&gt;Go To Door* -->
<g id="edge10" class="edge">
<title>Go To Door&#45;&gt;Go To Door*</title>
<path fill="none" stroke="black" d="M340,-71.7C340,-64.41 340,-55.73 340,-47.54"/>
<polygon fill="black" stroke="black" points="343.5,-47.62 340,-37.62 336.5,-47.62 343.5,-47.62"/>
</g>
<!-- Check if give way -->
<g id="node13" class="node">
<title>Check if give way</title>
<ellipse fill="gray" stroke="black" cx="443" cy="-18" rx="46.92" ry="18"/>
<text text-anchor="middle" x="443" y="-14.7" font-family="Times,serif" font-size="9.00">Check if give way</text>
</g>
<!-- Give Way&#45;&gt;Check if give way -->
<g id="edge12" class="edge">
<title>Give Way&#45;&gt;Check if give way</title>
<path fill="none" stroke="black" d="M479.89,-71.7C474.23,-63.61 467.37,-53.81 461.11,-44.87"/>
<polygon fill="black" stroke="black" points="464.11,-43.05 455.5,-36.86 458.37,-47.06 464.11,-43.05"/>
</g>
<!-- Give Way* -->
<g id="node14" class="node">
<title>Give Way*</title>
<ellipse fill="gray" stroke="black" cx="541" cy="-18" rx="32.93" ry="18"/>
<text text-anchor="middle" x="541" y="-14.7" font-family="Times,serif" font-size="9.00">Give Way*</text>
</g>
<!-- Give Way&#45;&gt;Give Way* -->
<g id="edge13" class="edge">
<title>Give Way&#45;&gt;Give Way*</title>
<path fill="none" stroke="black" d="M504.11,-71.7C509.86,-63.49 516.83,-53.52 523.17,-44.48"/>
<polygon fill="black" stroke="black" points="525.96,-46.58 528.83,-36.38 520.23,-42.57 525.96,-46.58"/>
</g>
<!-- Check if go through door -->
<g id="node16" class="node">
<title>Check if go through door</title>
<ellipse fill="gray" stroke="black" cx="654" cy="-18" rx="61.78" ry="18"/>
<text text-anchor="middle" x="654" y="-14.7" font-family="Times,serif" font-size="9.00">Check if go through door</text>
</g>
<!-- Go Through Door&#45;&gt;Check if go through door -->
<g id="edge15" class="edge">
<title>Go Through Door&#45;&gt;Check if go through door</title>
<path fill="none" stroke="black" d="M654,-71.7C654,-64.41 654,-55.73 654,-47.54"/>
<polygon fill="black" stroke="black" points="657.5,-47.62 654,-37.62 650.5,-47.62 657.5,-47.62"/>
</g>
<!-- Go Through Door* -->
<g id="node17" class="node">
<title>Go Through Door*</title>
<ellipse fill="gray" stroke="black" cx="784" cy="-18" rx="49.98" ry="18"/>
<text text-anchor="middle" x="784" y="-14.7" font-family="Times,serif" font-size="9.00">Go Through Door*</text>
</g>
<!-- Go Through Door&#45;&gt;Go Through Door* -->
<g id="edge16" class="edge">
<title>Go Through Door&#45;&gt;Go Through Door*</title>
<path fill="none" stroke="black" d="M686.47,-71.52C704.96,-61.56 728.17,-49.06 747.32,-38.75"/>
<polygon fill="black" stroke="black" points="748.72,-41.97 755.86,-34.15 745.4,-35.81 748.72,-41.97"/>
</g>
<!-- Check if go to task -->
<g id="node19" class="node">
<title>Check if go to task</title>
<ellipse fill="gray" stroke="black" cx="900" cy="-18" rx="48.23" ry="18"/>
<text text-anchor="middle" x="900" y="-14.7" font-family="Times,serif" font-size="9.00">Check if go to task</text>
</g>
<!-- Go To task&#45;&gt;Check if go to task -->
<g id="edge18" class="edge">
<title>Go To task&#45;&gt;Check if go to task</title>
<path fill="none" stroke="black" d="M900,-71.7C900,-64.41 900,-55.73 900,-47.54"/>
<polygon fill="black" stroke="black" points="903.5,-47.62 900,-37.62 896.5,-47.62 903.5,-47.62"/>
</g>
<!-- Go to task -->
<g id="node20" class="node">
<title>Go to task</title>
<ellipse fill="gray" stroke="black" cx="997" cy="-18" rx="30.75" ry="18"/>
<text text-anchor="middle" x="997" y="-14.7" font-family="Times,serif" font-size="9.00">Go to task</text>
</g>
<!-- Go To task&#45;&gt;Go to task -->
<g id="edge19" class="edge">
<title>Go To task&#45;&gt;Go to task</title>
<path fill="none" stroke="black" d="M923.98,-71.7C937.56,-61.89 954.63,-49.58 968.85,-39.32"/>
<polygon fill="black" stroke="black" points="970.87,-42.17 976.93,-33.48 966.77,-36.5 970.87,-42.17"/>
</g>
</g>
</svg>
